<?xml version="1.0" encoding="utf-8"?>
<!-- Generator: Adobe Illustrator 25.2.1, SVG Export Plug-In . SVG Version: 6.00 Build 0)  -->
<svg version="1.1" id="Layer_1" xmlns="http://www.w3.org/2000/svg" xmlns:xlink="http://www.w3.org/1999/xlink" x="0px" y="0px"
	 viewBox="0 0 24 24" style="enable-background:new 0 0 24 24;" xml:space="preserve">
<style type="text/css">
	.st0{stroke:#000000;stroke-width:0.25;stroke-miterlimit:10;}
</style>
<path class="st0" d="M13.45,7.01C10.89,6.34,8.2,7.46,6.89,9.77c-1.26,2.2-0.95,4.94,0.78,6.82c0.78,0.84,1.35,1.72,1.31,2.95
	c-0.06,1.87,1.16,3.19,2.86,3.25c1.77,0.06,3.1-1.18,3.09-3.09c0-1.27,0.47-2.22,1.31-3.1c1.03-1.09,1.53-2.42,1.53-3.93
	C17.77,10,16,7.68,13.45,7.01z M13.49,19.72c-0.5,0.01-1.01,0-1.51,0c-0.5,0-1.01,0-1.51,0c-0.18,0-0.37-0.01-0.37-0.27
	c0-0.25,0.2-0.26,0.38-0.26c1.01-0.01,2.02,0,3.03,0c0.17,0,0.38,0.01,0.37,0.27C13.87,19.71,13.67,19.71,13.49,19.72z M15.64,15.68
	c-0.55,0.66-1.16,1.27-1.48,2.09c-0.12,0.31-0.36,0.31-0.62,0.31c-0.46,0-0.92,0-1.55,0c-0.63,0-1.09,0-1.55,0
	c-0.26,0-0.5-0.01-0.62-0.31c-0.31-0.82-0.92-1.44-1.48-2.09c-1.64-1.95-1.45-4.79,0.42-6.51C9.69,8.33,10.85,7.9,12,7.9
	c1.15,0,2.31,0.42,3.23,1.27C17.09,10.9,17.28,13.73,15.64,15.68z M10.43,20.98h3.14l0,0c-0.23,0.4-0.85,0.69-1.57,0.69
	C11.28,21.66,10.67,21.38,10.43,20.98L10.43,20.98z"/>
</svg>
